<svg xmlns="http://www.w3.org/2000/svg" xmlns:xlink="http://www.w3.org/1999/xlink" viewBox="0 0 65.131 62.131" fill="#fff" fill-rule="evenodd" stroke="#000" stroke-linecap="round" stroke-linejoin="round"><use xlink:href="#A" x=".5" y=".631"/><symbol id="A" overflow="visible"><path d="M35.846.183L35.79.057C35.762.03 35.733 0 35.663 0l-.126.03c-.057.057-.086.086-.086.143l-2.42 43.795.37-.057L35.76 1.318 38.55 5.9h-.03c2.106 6.204 2.99 12.806 2.648 19.807l.17.256 2.774 4.893.17.17c4.24 3.728 8.99 6.232 14.257 7.513l1.28 2.078.17.057.03-.057L35.8 1.005l.057-.826m-.864 15.456c2.99 6.12 4.07 15.367 3.272 27.746l11.64-1.422zm26.532 26.893c1.195-.142 1.963-.398 2.305-.757L2.888 49.2c.03 2.532 1.166 4.525 3.386 5.947.55.395 1.155.712 1.793.94.542-.625 1.14-1.082 1.85-1.508h.028c6.374-3.87 15.85-4.468 28.373-1.82l.143.028c1.353.278 2.692.62 4.013 1.024a1.11 1.11 0 0 0 .939-.285c.454-.34 1.025-.598 1.793-.757v-.03c2.02-3.586 4.754-6.232 8.168-7.97 2.362-1.166 5.095-1.936 8.14-2.22M32.258 43.65L35.033.907c-4.014 15.53-10.577 30.288-19.42 43.67l16.648-.94M16.58 9.204l-.126-.057-.126.03-.057.143-2.305 36.996.34-.03L16.61 9.32l-.057-.126m-3.218 36.324l2.446-36.084L2.89 46.626l10.444-1.1" stroke="none" fill="#ccc" fill-rule="nonzero"/><g stroke="#ccc" fill="none"><path d="M13.86 57.545c-3.216 1.538-5.548 1.793-7.03.854-1.48-1.01-3.758-.757-6.83.68m21.4-1.308a8.34 8.34 0 0 0-1.936-.398c-1.395-.126-3.073.43-5.038 1.594-1.963 1.195-4.325 1.64-7.144 1.395m31.652-5.492c-13.546-2.774-23.307-2.135-29.283 1.992m37.822-.656c-.62-.236-1.273-.37-1.936-.398-1.395-.126-3.073.43-5.036 1.594s-4.325 1.622-7.144 1.395" stroke-width=".335"/><path d="M29.3 9.546c-1.395-.854-2.846-.625-4.354.71-1.31-1.337-2.673-1.564-4.098-.71m5.294-4.782c-1.422-.854-2.817-.512-4.24 1.024-1.395-1.538-2.817-1.892-4.24-1.024" stroke-width=".811"/></g></symbol></svg>