<svg version="1" xmlns="http://www.w3.org/2000/svg" width="682.667" height="682.667" viewBox="0 0 512.000000 512.000000"><path d="M41.5 1C23.2 4.8 8.5 18 2.4 36 .6 41.3.5 49.4.5 256s.1 214.7 1.9 220c5.2 15.4 16.8 27.4 32.2 33.2l5.9 2.3h431l5.9-2.3c15.4-5.8 27-17.8 32.2-33.2 1.8-5.3 1.9-13.4 1.9-220s-.1-214.7-1.9-220c-5.2-15.4-16.8-27.4-32.2-33.2L471.5.5l-213-.1C141.3.3 43.7.6 41.5 1zm360 113.6c24.6 4.1 43.9 14.5 61.4 33 7.3 7.7 18.1 23.2 18.1 26 0 1.1-19.2 14.4-20.7 14.4-.5 0-2.3-2.8-4.2-6.1-12.8-22.3-35.5-37.7-62.6-42.5-10.3-1.8-30.2-1.8-39.8 0-33.8 6.5-64 35.3-76.5 73.1-4.9 14.8-6.7 27-6.7 44.5.1 17.8 2.3 30.3 8.1 45.4 11.3 29.3 34 53.8 59.9 64.5 14.4 6 21.5 7.4 38 7.5 18.5.1 27.7-2 44-9.9 13.7-6.6 22.2-12.9 35.3-26.2l10.2-10.4V280h-63v-21h87v139h-24v-41.3l-9.7 9.4c-15.7 15.2-33.2 25.3-53 30.6-9 2.5-11.4 2.7-28.8 2.7-17.3-.1-19.9-.3-28.8-2.7-22.5-6-41.6-17.4-59.2-35.1-12.2-12.3-20.7-24.1-28.3-39.2-38.9-76.9-3.7-174 73.5-203 18.8-7.1 45.3-8.9 69.8-4.8zM210 126.5V139H51v102l69.3.2 69.2.3.3 11.7.3 11.8H51v108l81.3.2 81.2.3.3 12.2.3 12.3H23V114h187v12.5z"/></svg>